<svg width="26" height="20" viewBox="0 0 26 20" fill="none" xmlns="http://www.w3.org/2000/svg">
<path d="M25.4999 2.30769C24.5768 2.76923 23.6538 2.92308 22.5768 3.07692C23.6538 2.46154 24.423 1.53846 24.7307 0.307692C23.8076 0.923077 22.7307 1.23077 21.4999 1.53846C20.5768 0.615385 19.1922 0 17.8076 0C14.5768 0 12.1153 3.07692 12.8845 6.15385C8.73068 6 5.03837 4 2.42298 0.923078C1.03837 3.23077 1.8076 6.15385 3.96144 7.69231C3.19221 7.69231 2.42298 7.38462 1.65375 7.07692C1.65375 9.38462 3.34606 11.5385 5.65375 12.1538C4.88452 12.3077 4.11529 12.4615 3.34606 12.3077C3.96145 14.3077 5.8076 15.8462 8.11529 15.8462C6.26914 17.2308 3.49991 18 0.884521 17.6923C3.19221 19.0769 5.8076 20 8.57683 20C17.9614 20 23.1922 12.1538 22.8845 4.92308C23.9614 4.30769 24.8845 3.38462 25.4999 2.30769Z" fill="white"/>
</svg>
