<svg width="23" height="23" viewBox="0 0 23 23" fill="none" xmlns="http://www.w3.org/2000/svg">
<path d="M19.9962 14.26L18.5448 12.8086C18.5081 12.7719 18.5209 12.7104 18.5679 12.6899C19.0804 12.4686 19.5597 12.1833 19.9962 11.8458C20.1525 11.7245 20.3029 11.5972 20.4473 11.4631C20.8684 11.0719 21.2383 10.6268 21.5459 10.1381C21.5467 10.1364 21.5476 10.1356 21.5484 10.1339C21.7346 9.83744 21.8987 9.52477 22.0371 9.1993C22.3711 8.41337 22.5573 7.5497 22.5607 6.64246C22.5607 6.64246 22.5607 6.6416 22.5607 6.64075C22.5607 6.63221 22.5607 6.62366 22.5607 6.61512C22.5607 5.70874 22.3788 4.84592 22.049 4.05914C21.9388 3.79517 21.8115 3.53974 21.6689 3.29456C21.6689 3.29286 21.6672 3.292 21.6672 3.29115C21.0256 2.18913 20.0748 1.29044 18.9343 0.712097C18.9301 0.709535 18.9249 0.706972 18.9207 0.705263C18.0382 0.260187 16.5466 0.00732246 15.4925 0.000488281C15.478 0.000488281 15.9606 0.000488281 15.9461 0.000488281C15.9316 0.000488281 15.9179 0.000488281 15.9034 0.000488281H1.97105C0.882708 0.000488281 0.000244141 0.882952 0.000244141 1.9713V16.0241C0.000244141 16.4794 0.0463749 16.9245 0.134365 17.3542C0.134365 17.355 0.134365 17.3559 0.134365 17.3576C0.298385 18.1589 0.607632 18.9081 1.03306 19.5753C1.03306 19.577 1.03477 19.5779 1.03562 19.5796C1.74809 20.6961 2.78688 21.5845 4.01703 22.1099C4.0213 22.1116 4.02558 22.1133 4.02985 22.115C4.03924 22.1193 4.0495 22.1236 4.05889 22.1279C4.69191 22.3935 5.37447 22.5627 6.0895 22.6191C6.26292 22.6327 6.43719 22.6396 6.61402 22.6396C7.52638 22.6396 8.39518 22.455 9.18538 22.121C9.74322 21.8852 10.2626 21.5751 10.7308 21.2027C10.7316 21.2027 10.7325 21.2018 10.7333 21.201C10.7419 21.1941 10.7513 21.1873 10.7598 21.1796C10.7624 21.1779 10.7649 21.1753 10.7675 21.1736C11.3732 20.6841 11.8909 20.0904 12.2924 19.419C12.8613 18.4682 13.1988 17.3636 13.2261 16.1821V16.1796C13.2269 16.1283 13.2278 16.077 13.2278 16.0258C13.2278 15.9745 13.2278 15.9233 13.2261 15.872V13.51C13.2261 13.4083 13.3491 13.357 13.4209 13.4288L19.411 19.419L20.8129 20.8208C21.4596 21.4675 22.5641 21.0096 22.5641 20.0955V17.5643C22.5641 17.0962 22.3779 16.6468 22.0465 16.3154L19.9928 14.2617L19.9962 14.26ZM15.9435 9.1993H9.63387C9.38699 9.1993 9.18624 9.3992 9.18624 9.64693V16.0796V16.0805C9.10508 17.8847 7.28975 19.0533 5.62307 18.3554C4.72266 17.9787 4.11357 17.1099 4.05889 16.1266V4.45381C4.05889 4.23853 4.23402 4.06341 4.4493 4.06341L9.84317 4.05999C9.84317 4.05999 9.84317 4.0617 9.84232 4.06255C10.9742 4.06255 12.1429 4.06255 13.2278 4.06255C14.241 4.06255 15.1815 4.06255 15.9504 4.06426C17.342 4.06597 18.4901 5.22437 18.4952 6.6117C18.5004 8.03407 17.3719 9.17965 15.9435 9.20015V9.1993Z" fill="#F56630"/>
</svg>
